Coordinates
version=1
nRows=8
nColumns=46
inDegrees=yes

Units are S.I. units (second, meters, Newtons, ...)
Angles are in degrees.

endheader
time	pelvis_tilt	pelvis_list	pelvis_rotation	pelvis_tx	pelvis_ty	pelvis_tz	bb_angle	bb_tx	bb_ty	bb_tz	hip_flexion_r	hip_adduction_r	hip_rotation_r	knee_angle_r	knee_angle_r_beta	ankle_angle_r	subtalar_angle_r	mtp_angle_r	crank_angle_r	hip_flexion_l	hip_adduction_l	hip_rotation_l	knee_angle_l	knee_angle_l_beta	ankle_angle_l	subtalar_angle_l	mtp_angle_l	crank_angle_l	lumbar_extension	lumbar_bending	lumbar_rotation	arm_flex_r	arm_add_r	arm_rot_r	elbow_flex_r	pro_sup_r	wrist_flex_r	wrist_dev_r	arm_flex_l	arm_add_l	arm_rot_l	elbow_flex_l	pro_sup_l	wrist_flex_l	wrist_dev_l
      7.50000000	    -11.09559812	      5.52793796	     -3.86588517	      0.11196655	      1.15215265	     -0.23711570	      0.00000000	      0.50000000	      0.00000000	      0.25000000	     34.79511004	     -3.65870533	     14.66426446	     29.36897683	      0.51258534	      8.89947945	    -10.51567599	      0.00000000	      0.00000000	     74.99962859	     -3.82251724	     -1.03449763	    108.38192533	      1.89162145	    -28.03929497	    -16.08213213	      0.00000000	      0.00000000	    -66.47478656	     -3.15684395	     -7.59904925	     88.96956899	    -21.49327813	     46.17861633	     75.24968424	     36.48518780	      0.00000000	      0.00000000	     87.52025741	    -44.77891493	     49.26867487	     78.67755324	     51.13442883	      0.00000000	      0.00000000
      7.50500000	    -10.84471998	      6.16559498	     -3.28834738	      0.11294648	      1.15249484	     -0.23599416	      0.00000000	      0.50000000	      0.00000000	      0.25000000	     33.31430347	     -4.83300989	     13.94115071	     28.16468818	      0.49156654	      8.67070947	     -9.52568123	      0.00000000	      0.00000000	     76.09620421	     -3.32114705	     -1.45515636	    109.21745188	      1.90620414	    -27.73931486	    -16.21488104	      0.00000000	      0.00000000	    -66.72060857	     -3.51057543	     -7.59304560	     88.80999877	    -23.21420830	     46.48350166	     76.00508058	     36.92169862	      0.00000000	      0.00000000	     87.77382952	    -42.88484306	     49.30155473	     77.80034225	     50.96954528	      0.00000000	      0.00000000
      7.51000000	    -11.06896589	      6.71295295	     -2.90148996	      0.11365774	      1.15185696	     -0.23453664	      0.00000000	      0.50000000	      0.00000000	      0.25000000	     32.48340576	     -5.68421885	     13.50442737	     27.19147663	      0.47458080	      8.14405537	     -9.07983549	      0.00000000	      0.00000000	     77.76518417	     -3.34577695	     -1.78271445	    110.10773857	      1.92174257	    -27.48879508	    -16.05705540	      0.00000000	      0.00000000	    -66.44394483	     -3.93185686	     -8.05662653	     88.52229980	    -23.61903117	     46.40507270	     76.06157268	     36.97845827	      0.00000000	      0.00000000	     87.79573856	    -42.32832990	     49.19722998	     77.77175658	     50.93973419	      0.00000000	      0.00000000
      7.51500000	    -10.99436635	      7.28389376	     -2.31462326	      0.11445260	      1.15138603	     -0.23411588	      0.00000000	      0.50000000	      0.00000000	      0.25000000	     31.50898059	     -6.83020810	     12.39197101	     26.67657581	      0.46559408	      8.29396920	     -7.66287647	      0.00000000	      0.00000000	     79.07086307	     -2.69646401	     -1.68152876	    110.92250020	      1.93596284	    -26.75522285	    -14.15900613	      0.00000000	      0.00000000	    -66.45401358	     -4.51266421	     -6.10323072	     87.94485352	    -28.66177329	     46.76482713	     78.97959313	     38.32080779	      0.00000000	      0.00000000	     88.13916691	    -36.82523289	     49.03787411	     74.39757604	     50.29029874	      0.00000000	      0.00000000
      7.52000000	    -10.95840267	      7.79007410	     -1.79320718	      0.11511795	      1.15096400	     -0.23324418	      0.00000000	      0.50000000	      0.00000000	      0.25000000	     30.57247299	     -7.75836026	     11.62146722	     26.19905604	      0.45725979	      8.25696090	     -6.91231039	      0.00000000	      0.00000000	     80.32426458	     -2.08906606	     -1.68373118	    111.58244526	      1.94748106	    -26.12544921	    -13.28465406	      0.00000000	      0.00000000	    -66.46252539	     -4.84703264	     -6.35342629	     87.47431424	    -29.55832339	     46.39090298	     79.27561196	     38.55563499	      0.00000000	      0.00000000	     88.21381408	    -35.74559492	     48.90045769	     74.14692736	     50.21705684	      0.00000000	      0.00000000
      7.52500000	    -11.06992048	      8.24161511	     -1.25844582	      0.11548970	      1.15032117	     -0.23214898	      0.00000000	      0.50000000	      0.00000000	      0.25000000	     29.92803585	     -8.57056863	     10.82042083	     26.03552158	      0.45440557	      8.29914932	     -6.04977278	      0.00000000	      0.00000000	     81.66394073	     -1.90315451	     -1.93854950	    112.07794274	      1.95612912	    -25.72792475	    -12.83309036	      0.00000000	      0.00000000	    -66.36019751	     -5.40154667	     -5.14881512	     86.52781583	    -32.85612508	     45.59835872	     81.28325999	     39.75065613	      0.00000000	      0.00000000	     88.39295986	    -31.93828610	     48.25713053	     71.93242947	     49.71051377	      0.00000000	      0.00000000
      7.53000000	    -11.16630344	      8.63498670	     -0.70618389	      0.11577100	      1.14954278	     -0.23113711	      0.00000000	      0.50000000	      0.00000000	      0.25000000	     29.35415992	     -9.24734922	     10.07085628	     26.07295899	      0.45505898	      8.31453137	     -5.92577308	      0.00000000	      0.00000000	     82.90621152	     -1.50718034	     -2.05230778	    112.44263843	      1.96249426	    -25.27020833	    -12.55604053	      0.00000000	      0.00000000	    -66.24759075	     -5.64556825	     -5.59774098	     86.13648803	    -33.33834941	     45.49652678	     81.25334206	     39.81492995	      0.00000000	      0.00000000	     88.45954883	    -31.41828060	     48.12964482	     71.97962446	     49.69619380	      0.00000000	      0.00000000
      7.53500000	    -11.24727409	      9.08364545	     -0.08773972	      0.11597517	      1.14895338	     -0.23036268	      0.00000000	      0.50000000	      0.00000000	      0.25000000	     28.95659647	    -10.09271921	      9.01677457	     26.50479550	      0.46259595	      8.92923411	     -4.78439536	      0.00000000	      0.00000000	     83.99961981	     -0.96061419	     -2.20197495	    112.59751712	      1.96519740	    -24.68720585	    -11.92684303	      0.00000000	      0.00000000	    -66.25917641	     -5.96871384	     -5.34505107	     85.23617611	    -35.00468628	     44.36452915	     82.37298242	     40.26597945	      0.00000000	      0.00000000	     88.50639729	    -29.33919502	     47.25029528	     71.08261952	     49.40085105	      0.00000000	      0.00000000
